#!OML:ASF F:\VICON\USERDATA\INSTALL\rory3\rory3.ASF
:FULLY-SPECIFIED
:DEGREES
1
root -2.72211 18.1995 6.68313 176.398 -1.71663 -177.812
lowerback 17.3894 1.32539 -4.06415
upperback -1.41902 1.21071 3.83925
thorax -11.5809 0.928598 6.27747
lowerneck -6.15657 5.73776 0.230705
upperneck 26.3061 7.46328 -6.04327
head 9.54067 2.01432 -1.52951
rclavicle 4.21175e-015 -1.66979e-014
rhumerus -80.4289 -62.262 29.8064
rradius 61.2508
rwrist -77.0333
rhand -18.625 1.57431
rfingers 7.12502
rthumb 7.66713 -28.2667
lclavicle 4.21175e-015 -1.66979e-014
lhumerus -44.8817 9.72613 73.6272
lradius 45.4126
lwrist 8.23197
lhand -7.63576 53.8562
lfingers 7.12502
lthumb 18.2593 83.0192
rfemur -0.654017 5.21274 18.3677
rtibia 24.6722
rfoot -16.4494 -17.0809
rtoes 4.14771
lfemur -1.12225 -7.17141 -20.1033
ltibia 23.7332
lfoot -14.8189 7.66789
ltoes -11.3347
2
root -2.72287 18.1982 6.67942 176.363 -1.61503 -177.943
lowerback 17.4001 1.33561 -4.25623
upperback -1.38234 1.1812 3.80467
thorax -11.5455 0.924517 6.3574
lowerneck -6.8738 5.34494 0.0047041
upperneck 26.923 6.965 -6.13139
head 9.87728 1.69074 -1.5704
rclavicle -6.78353e-015 4.45278e-014
rhumerus -79.9743 -62.241 29.2512
rradius 61.1609
rwrist -76.8139
rhand -18.5711 1.82597
rfingers 7.12502
rthumb 7.71909 -28.0131
lclavicle -6.78353e-015 4.45278e-014
lhumerus -44.9804 9.84046 73.6393
lradius 45.2869
lwrist 8.22166
lhand -7.78926 53.0844
lfingers 7.12502
lthumb 18.1116 82.2611
rfemur -0.699551 5.1994 18.2023
rtibia 24.8192
rfoot -16.4911 -17.1312
rtoes 3.5456
lfemur -0.996025 -7.11498 -20.265
ltibia 23.6519
lfoot -14.8154 7.71949
ltoes -11.1061
3
root -2.72383 18.1966 6.68133 176.3 -1.60056 -177.988
lowerback 17.4652 1.30301 -4.35699
upperback -1.29156 1.10815 3.78434
thorax -11.4713 0.889614 6.41207
lowerneck -7.44846 4.91006 -0.363245
upperneck 27.3719 6.38477 -6.02423
head 10.1142 1.35465 -1.53152
rclavicle 2.77056e-015 -3.97569e-015
rhumerus -79.7736 -62.4175 28.8869
rradius 61.0775
rwrist -76.4344
rhand -18.6867 2.10567
rfingers 7.12502
rthumb 7.60753 -27.7375
lclavicle 2.77056e-015 -3.97569e-015
lhumerus -44.944 9.89672 73.6826
lradius 45.2278
lwrist 8.2948
lhand -7.82222 52.5186
lfingers 7.12502
lthumb 18.0799 81.6983
rfemur -0.663799 5.19243 18.1434
rtibia 24.8737
rfoot -16.601 -17.0678
rtoes 3.70603
lfemur -0.924801 -7.07155 -20.3225
ltibia 23.6537
lfoot -14.8273 7.69681
ltoes -11.1163
4
root -2.72512 18.1956 6.68504 176.248 -1.54159 -178.053
lowerback 17.585 1.2861 -4.47692
upperback -1.25518 1.05178 3.74606
thorax -11.4929 0.868984 6.45514
lowerneck -7.4221 4.38573 -0.568453
upperneck 27.3326 5.67167 -6.15761
head 10.068 0.983422 -1.62303
rclavicle -3.65267e-015 -1.11319e-014
rhumerus -79.4371 -62.3858 28.3563
rradius 61.04
rwrist -76.2225
rhand -18.8305 1.72764
rfingers 7.12502
rthumb 7.46879 -28.1205
lclavicle -3.65267e-015 -1.11319e-014
lhumerus -45.0836 9.84599 73.7036
lradius 45.2881
lwrist 8.42991
lhand -7.90624 52.4281
lfingers 7.12502
lthumb 17.9991 81.6152
rfemur -0.658989 5.2462 18.0724
rtibia 24.9205
rfoot -16.6068 -16.9873
rtoes 3.65827
lfemur -0.885933 -7.09406 -20.4131
ltibia 23.6879
lfoot -14.8435 7.76104
ltoes -11.0414
5
root -2.72515 18.1948 6.69054 176.191 -1.39203 -177.883
lowerback 17.6779 1.27375 -4.38944
upperback -1.20975 1.04976 3.80604
thorax -11.4944 0.860582 6.47372
lowerneck -7.32491 3.84332 -0.926764
upperneck 27.2277 4.93938 -6.23873
head 9.97896 0.59753 -1.66996
rclavicle -5.97596e-015 1.51076e-014
rhumerus -78.9888 -62.3098 27.748
rradius 61.0053
rwrist -76.0655
rhand -18.5591 1.29109
rfingers 7.12502
rthumb 7.73075 -28.5476
lclavicle -5.97596e-015 1.51076e-014
lhumerus -45.207 9.82979 73.7521
lradius 45.2567
lwrist 8.56042
lhand -8.22301 52.0386
lfingers 7.12502
lthumb 17.6943 81.2535
rfemur -0.653283 5.38172 18.2817
rtibia 24.925
rfoot -16.5546 -17.0651
rtoes 3.8627
lfemur -0.878186 -7.01447 -20.2261
ltibia 23.7625
lfoot -14.8596 7.83644
ltoes -11.2058
6
root -2.72445 18.1934 6.69577 176.195 -1.32104 -177.794
lowerback 17.601 1.24681 -4.37107
upperback -1.08506 1.01432 3.83582
thorax -11.3035 0.830711 6.50241
lowerneck -7.56863 3.36862 -1.14105
upperneck 27.2219 4.33698 -6.36915
head 10.0037 0.280177 -1.74182
rclavicle -7.57867e-016 3.49861e-014
rhumerus -79.3447 -62.6487 27.9729
rradius 60.9774
rwrist -75.3916
rhand -18.0535 1.23264
rfingers 7.12502
rthumb 8.21872 -28.5875
lclavicle -7.57867e-016 3.49861e-014
lhumerus -45.0896 9.89638 73.8071
lradius 45.2136
lwrist 8.55069
lhand -8.22459 52.0853
lfingers 7.12502
lthumb 17.6927 81.3004
rfemur -0.688528 5.42114 18.3882
rtibia 24.9024
rfoot -16.5038 -17.0403
rtoes 4.34436
lfemur -0.937288 -7.00271 -20.1179
ltibia 23.8311
lfoot -14.8655 7.85648
ltoes -11.1845
7
root -2.72305 18.1922 6.69618 176.227 -1.29047 -177.795
lowerback 17.4472 1.20576 -4.47421
upperback -0.979377 0.939364 3.85829
thorax -11.087 0.790243 6.6031
lowerneck -7.28809 2.83638 -1.54112
upperneck 26.8335 3.61979 -6.38286
head 9.77873 -0.0681643 -1.74547
rclavicle 1.04113e-014 -3.33958e-014
rhumerus -80.0772 -63.1252 28.7205
rradius 60.9085
rwrist -74.525
rhand -17.6574 1.07984
rfingers 7.12502
rthumb 8.60094 -28.725
lclavicle 1.04113e-014 -3.33958e-014
lhumerus -45.0953 10.0129 73.8365
lradius 45.2789
lwrist 8.43612
lhand -7.95357 52.5694
lfingers 7.12502
lthumb 17.9535 81.7607
rfemur -0.721436 5.35357 18.3745
rtibia 24.8853
rfoot -16.4302 -16.9219
rtoes 4.26233
lfemur -0.985115 -7.02723 -20.1114
ltibia 23.8896
lfoot -14.8835 7.86152
ltoes -10.9581
